<svg width="16" height="18" viewBox="0 0 16 18" fill="none" xmlns="http://www.w3.org/2000/svg">
<path d="M1.07454 0.666666C0.614307 0.666666 0.241211 1.03976 0.241211 1.5C0.241211 1.96024 0.614307 2.33333 1.07454 2.33333C1.68156 2.33333 2.21187 2.7744 2.32105 3.395L2.8927 6.64439C2.89764 6.67244 2.90392 6.69991 2.91148 6.72675L3.08019 7.6696C3.55154 10.3038 3.78721 11.6209 4.60229 12.5251C4.90475 12.8606 5.25945 13.1487 5.65369 13.3791C6.71612 14 8.10192 14 10.8735 14H11.2118C12.464 14 13.0901 14 13.6055 13.7803C14.0245 13.6017 14.3887 13.322 14.6632 12.9682C15.0007 12.5331 15.1411 11.9447 15.4219 10.7677C15.846 8.99007 16.0581 8.10126 15.8112 7.40617C15.6119 6.84514 15.2179 6.36769 14.6957 6.05458C14.0487 5.66667 13.1031 5.66667 11.2118 5.66667H4.41296L3.96251 3.10623C3.71533 1.7012 2.50316 0.666666 1.07454 0.666666Z" fill="#175CFF"/>
<path d="M6.74959 16.2917C6.74959 16.867 6.28322 17.3333 5.70793 17.3333C5.13263 17.3333 4.66626 16.867 4.66626 16.2917C4.66626 15.7164 5.13263 15.25 5.70793 15.25C6.28322 15.25 6.74959 15.7164 6.74959 16.2917Z" fill="#175CFF"/>
<path d="M13.2079 17.3333C13.7832 17.3333 14.2496 16.867 14.2496 16.2917C14.2496 15.7164 13.7832 15.25 13.2079 15.25C12.6326 15.25 12.1663 15.7164 12.1663 16.2917C12.1663 16.867 12.6326 17.3333 13.2079 17.3333Z" fill="#175CFF"/>
</svg>
